<svg width="112" height="265" viewBox="0 0 112 265" fill="none" xmlns="http://www.w3.org/2000/svg">
<path d="M2.54297 30H1.87891V24.8789H0.0703125V24.2891H4.35156V24.8789H2.54297V30ZM8.04688 30V27.2305C8.04688 26.8815 7.96745 26.6211 7.80859 26.4492C7.64974 26.2773 7.40104 26.1914 7.0625 26.1914C6.61198 26.1914 6.28255 26.3138 6.07422 26.5586C5.86849 26.8034 5.76562 27.2044 5.76562 27.7617V30H5.11719V23.9219H5.76562V25.7617C5.76562 25.9831 5.75521 26.1667 5.73438 26.3125H5.77344C5.90104 26.1068 6.08203 25.9453 6.31641 25.8281C6.55339 25.7083 6.82292 25.6484 7.125 25.6484C7.64844 25.6484 8.04036 25.7734 8.30078 26.0234C8.5638 26.2708 8.69531 26.6654 8.69531 27.207V30H8.04688ZM11.9844 25.6406C12.1745 25.6406 12.3451 25.6562 12.4961 25.6875L12.4062 26.2891C12.2292 26.25 12.0729 26.2305 11.9375 26.2305C11.5911 26.2305 11.2943 26.3711 11.0469 26.6523C10.8021 26.9336 10.6797 27.2839 10.6797 27.7031V30H10.0312V25.7188H10.5664L10.6406 26.5117H10.6719C10.8307 26.2331 11.0221 26.0182 11.2461 25.8672C11.4701 25.7161 11.7161 25.6406 11.9844 25.6406ZM15.1055 30.0781C14.4727 30.0781 13.9727 29.8854 13.6055 29.5C13.2409 29.1146 13.0586 28.5794 13.0586 27.8945C13.0586 27.2044 13.2279 26.6562 13.5664 26.25C13.9076 25.8438 14.3646 25.6406 14.9375 25.6406C15.474 25.6406 15.8984 25.8177 16.2109 26.1719C16.5234 26.5234 16.6797 26.9883 16.6797 27.5664V27.9766H13.7305C13.7435 28.4792 13.8698 28.8607 14.1094 29.1211C14.3516 29.3815 14.6914 29.5117 15.1289 29.5117C15.5898 29.5117 16.0456 29.4154 16.4961 29.2227V29.8008C16.2669 29.8997 16.0495 29.9701 15.8438 30.0117C15.6406 30.056 15.3945 30.0781 15.1055 30.0781ZM14.9297 26.1836C14.5859 26.1836 14.3112 26.2956 14.1055 26.5195C13.9023 26.7435 13.7826 27.0534 13.7461 27.4492H15.9844C15.9844 27.0404 15.8932 26.7279 15.7109 26.5117C15.5286 26.293 15.2682 26.1836 14.9297 26.1836ZM20.4219 30L20.293 29.3906H20.2617C20.0482 29.6589 19.8346 29.8411 19.6211 29.9375C19.4102 30.0312 19.1458 30.0781 18.8281 30.0781C18.4036 30.0781 18.0703 29.9688 17.8281 29.75C17.5885 29.5312 17.4688 29.2201 17.4688 28.8164C17.4688 27.9518 18.1602 27.4987 19.543 27.457L20.2695 27.4336V27.168C20.2695 26.832 20.1966 26.5846 20.0508 26.4258C19.9076 26.2643 19.6771 26.1836 19.3594 26.1836C19.0026 26.1836 18.599 26.293 18.1484 26.5117L17.9492 26.0156C18.1602 25.901 18.3906 25.8112 18.6406 25.7461C18.8932 25.681 19.1458 25.6484 19.3984 25.6484C19.9089 25.6484 20.2865 25.7617 20.5312 25.9883C20.7786 26.2148 20.9023 26.5781 20.9023 27.0781V30H20.4219ZM18.957 29.543C19.3607 29.543 19.6771 29.4323 19.9062 29.2109C20.138 28.9896 20.2539 28.6797 20.2539 28.2812V27.8945L19.6055 27.9219C19.0898 27.9401 18.7174 28.0208 18.4883 28.1641C18.2617 28.3047 18.1484 28.5247 18.1484 28.8242C18.1484 29.0586 18.2188 29.237 18.3594 29.3594C18.5026 29.4818 18.7018 29.543 18.957 29.543ZM25.1562 29.4258H25.1211C24.8216 29.8607 24.3737 30.0781 23.7773 30.0781C23.2174 30.0781 22.7812 29.8867 22.4688 29.5039C22.1589 29.1211 22.0039 28.5768 22.0039 27.8711C22.0039 27.1654 22.1602 26.6172 22.4727 26.2266C22.7852 25.8359 23.2201 25.6406 23.7773 25.6406C24.3581 25.6406 24.8034 25.8516 25.1133 26.2734H25.1641L25.1367 25.9648L25.1211 25.6641V23.9219H25.7695V30H25.2422L25.1562 29.4258ZM23.8594 29.5352C24.3021 29.5352 24.6224 29.4154 24.8203 29.1758C25.0208 28.9336 25.1211 28.5443 25.1211 28.0078V27.8711C25.1211 27.2643 25.0195 26.832 24.8164 26.5742C24.6159 26.3138 24.2943 26.1836 23.8516 26.1836C23.4714 26.1836 23.1797 26.332 22.9766 26.6289C22.776 26.9232 22.6758 27.3398 22.6758 27.8789C22.6758 28.4258 22.776 28.8385 22.9766 29.1172C23.1771 29.3958 23.4714 29.5352 23.8594 29.5352ZM33.7852 30H33.0273L29.9062 25.207H29.875C29.9167 25.7695 29.9375 26.2852 29.9375 26.7539V30H29.3242V24.2891H30.0742L33.1875 29.0625H33.2188C33.2135 28.9922 33.2018 28.7669 33.1836 28.3867C33.1654 28.0039 33.1589 27.7305 33.1641 27.5664V24.2891H33.7852V30Z" fill="#FFA48F"/>
<rect x="0.5" y="43.5" width="109" height="184" fill="#FFCFC5" stroke="#FFA48F"/>
<rect x="9.5" y="139.5" width="91" height="81" rx="1.5" fill="#FFF8DF" stroke="#93750D"/>
<g filter="url(#filter0_d)">
<rect x="15.5" y="145.5" width="79" height="19" rx="0.5" fill="#7EAFF9" stroke="#5A83C1"/>
<path d="M39.6439 155.699H38.3079V158H37.554V152.312H39.4368C40.0775 152.312 40.5697 152.458 40.9134 152.75C41.2598 153.042 41.4329 153.466 41.4329 154.023C41.4329 154.378 41.3366 154.686 41.1439 154.949C40.9538 155.212 40.6882 155.409 40.347 155.539L41.6829 157.953V158H40.8783L39.6439 155.699ZM38.3079 155.086H39.4603C39.8327 155.086 40.1283 154.99 40.347 154.797C40.5684 154.604 40.679 154.346 40.679 154.023C40.679 153.672 40.5736 153.402 40.3626 153.215C40.1543 153.027 39.8522 152.932 39.4564 152.93H38.3079V155.086ZM44.1283 158.078C43.5553 158.078 43.0892 157.891 42.7298 157.516C42.3704 157.138 42.1908 156.634 42.1908 156.004V155.871C42.1908 155.452 42.2702 155.078 42.429 154.75C42.5905 154.419 42.8145 154.161 43.1009 153.977C43.39 153.789 43.7025 153.695 44.0384 153.695C44.5879 153.695 45.015 153.876 45.3197 154.238C45.6243 154.6 45.7767 155.118 45.7767 155.793V156.094H42.9134C42.9238 156.51 43.0449 156.848 43.2767 157.105C43.5111 157.361 43.8079 157.488 44.1673 157.488C44.4225 157.488 44.6387 157.436 44.8158 157.332C44.9928 157.228 45.1478 157.09 45.2806 156.918L45.722 157.262C45.3678 157.806 44.8366 158.078 44.1283 158.078ZM44.0384 154.289C43.7467 154.289 43.502 154.396 43.304 154.609C43.1061 154.82 42.9837 155.117 42.9368 155.5H45.054V155.445C45.0332 155.078 44.9342 154.794 44.7572 154.594C44.5801 154.391 44.3405 154.289 44.0384 154.289ZM46.4408 155.852C46.4408 155.188 46.5931 154.663 46.8978 154.277C47.2025 153.889 47.6113 153.695 48.1243 153.695C48.6243 153.695 49.0189 153.863 49.3079 154.199L49.3392 153.773H50.0033V159.625H49.2806V157.609C48.9889 157.922 48.6009 158.078 48.1165 158.078C47.6061 158.078 47.1986 157.88 46.8939 157.484C46.5918 157.086 46.4408 156.559 46.4408 155.902V155.852ZM47.1634 155.934C47.1634 156.418 47.265 156.798 47.4681 157.074C47.6738 157.35 47.9499 157.488 48.2962 157.488C48.7259 157.488 49.054 157.298 49.2806 156.918V154.848C49.0514 154.475 48.7259 154.289 48.304 154.289C47.9551 154.289 47.6777 154.428 47.472 154.707C47.2663 154.983 47.1634 155.392 47.1634 155.934ZM53.7728 157.582C53.4915 157.913 53.0788 158.078 52.5345 158.078C52.084 158.078 51.7402 157.948 51.5033 157.688C51.2689 157.424 51.1504 157.036 51.1478 156.523V153.773H51.8704V156.504C51.8704 157.145 52.1309 157.465 52.6517 157.465C53.2038 157.465 53.571 157.259 53.7533 156.848V153.773H54.4759V158H53.7884L53.7728 157.582ZM57.3314 158.078C56.7585 158.078 56.2923 157.891 55.9329 157.516C55.5736 157.138 55.3939 156.634 55.3939 156.004V155.871C55.3939 155.452 55.4733 155.078 55.6322 154.75C55.7936 154.419 56.0176 154.161 56.304 153.977C56.5931 153.789 56.9056 153.695 57.2415 153.695C57.791 153.695 58.2181 153.876 58.5228 154.238C58.8275 154.6 58.9798 155.118 58.9798 155.793V156.094H56.1165C56.127 156.51 56.248 156.848 56.4798 157.105C56.7142 157.361 57.0111 157.488 57.3704 157.488C57.6257 157.488 57.8418 157.436 58.0189 157.332C58.196 157.228 58.3509 157.09 58.4837 156.918L58.9251 157.262C58.571 157.806 58.0397 158.078 57.3314 158.078ZM57.2415 154.289C56.9499 154.289 56.7051 154.396 56.5072 154.609C56.3092 154.82 56.1868 155.117 56.14 155.5H58.2572V155.445C58.2363 155.078 58.1374 154.794 57.9603 154.594C57.7832 154.391 57.5436 154.289 57.2415 154.289ZM62.2806 156.879C62.2806 156.684 62.2064 156.533 62.0579 156.426C61.9121 156.316 61.6556 156.223 61.2884 156.145C60.9238 156.066 60.6335 155.973 60.4173 155.863C60.2038 155.754 60.0449 155.624 59.9408 155.473C59.8392 155.322 59.7884 155.142 59.7884 154.934C59.7884 154.587 59.9342 154.294 60.2259 154.055C60.5202 153.815 60.8952 153.695 61.3509 153.695C61.8301 153.695 62.2181 153.819 62.515 154.066C62.8145 154.314 62.9642 154.63 62.9642 155.016H62.2376C62.2376 154.818 62.153 154.647 61.9837 154.504C61.8171 154.361 61.6061 154.289 61.3509 154.289C61.0879 154.289 60.8822 154.346 60.7337 154.461C60.5853 154.576 60.5111 154.725 60.5111 154.91C60.5111 155.085 60.5801 155.216 60.7181 155.305C60.8561 155.393 61.1048 155.478 61.4642 155.559C61.8262 155.639 62.1191 155.736 62.3431 155.848C62.5671 155.96 62.7324 156.095 62.8392 156.254C62.9486 156.41 63.0033 156.602 63.0033 156.828C63.0033 157.206 62.8522 157.509 62.5501 157.738C62.248 157.965 61.8561 158.078 61.3743 158.078C61.0358 158.078 60.7363 158.018 60.4759 157.898C60.2155 157.779 60.0111 157.612 59.8626 157.398C59.7168 157.182 59.6439 156.949 59.6439 156.699H60.3665C60.3796 156.941 60.4759 157.134 60.6556 157.277C60.8379 157.418 61.0775 157.488 61.3743 157.488C61.6478 157.488 61.8665 157.434 62.0306 157.324C62.1973 157.212 62.2806 157.064 62.2806 156.879ZM64.9251 152.75V153.773H65.7142V154.332H64.9251V156.953C64.9251 157.122 64.9603 157.25 65.0306 157.336C65.1009 157.419 65.2207 157.461 65.39 157.461C65.4733 157.461 65.5879 157.445 65.7337 157.414V158C65.5436 158.052 65.3587 158.078 65.179 158.078C64.8561 158.078 64.6126 157.98 64.4486 157.785C64.2845 157.59 64.2025 157.312 64.2025 156.953V154.332H63.4329V153.773H64.2025V152.75H64.9251ZM70.847 158H70.1204V153.184L68.6634 153.719V153.062L70.7337 152.285H70.847V158Z" fill="white"/>
</g>
<g filter="url(#filter1_d)">
<rect x="15.5" y="170.5" width="79" height="19" rx="0.5" fill="#7EAFF9" stroke="#5A83C1"/>
<path d="M39.6439 180.699H38.3079V183H37.554V177.312H39.4368C40.0775 177.312 40.5697 177.458 40.9134 177.75C41.2598 178.042 41.4329 178.466 41.4329 179.023C41.4329 179.378 41.3366 179.686 41.1439 179.949C40.9538 180.212 40.6882 180.409 40.347 180.539L41.6829 182.953V183H40.8783L39.6439 180.699ZM38.3079 180.086H39.4603C39.8327 180.086 40.1283 179.99 40.347 179.797C40.5684 179.604 40.679 179.346 40.679 179.023C40.679 178.672 40.5736 178.402 40.3626 178.215C40.1543 178.027 39.8522 177.932 39.4564 177.93H38.3079V180.086ZM44.1283 183.078C43.5553 183.078 43.0892 182.891 42.7298 182.516C42.3704 182.138 42.1908 181.634 42.1908 181.004V180.871C42.1908 180.452 42.2702 180.078 42.429 179.75C42.5905 179.419 42.8145 179.161 43.1009 178.977C43.39 178.789 43.7025 178.695 44.0384 178.695C44.5879 178.695 45.015 178.876 45.3197 179.238C45.6243 179.6 45.7767 180.118 45.7767 180.793V181.094H42.9134C42.9238 181.51 43.0449 181.848 43.2767 182.105C43.5111 182.361 43.8079 182.488 44.1673 182.488C44.4225 182.488 44.6387 182.436 44.8158 182.332C44.9928 182.228 45.1478 182.09 45.2806 181.918L45.722 182.262C45.3678 182.806 44.8366 183.078 44.1283 183.078ZM44.0384 179.289C43.7467 179.289 43.502 179.396 43.304 179.609C43.1061 179.82 42.9837 180.117 42.9368 180.5H45.054V180.445C45.0332 180.078 44.9342 179.794 44.7572 179.594C44.5801 179.391 44.3405 179.289 44.0384 179.289ZM46.4408 180.852C46.4408 180.188 46.5931 179.663 46.8978 179.277C47.2025 178.889 47.6113 178.695 48.1243 178.695C48.6243 178.695 49.0189 178.863 49.3079 179.199L49.3392 178.773H50.0033V184.625H49.2806V182.609C48.9889 182.922 48.6009 183.078 48.1165 183.078C47.6061 183.078 47.1986 182.88 46.8939 182.484C46.5918 182.086 46.4408 181.559 46.4408 180.902V180.852ZM47.1634 180.934C47.1634 181.418 47.265 181.798 47.4681 182.074C47.6738 182.35 47.9499 182.488 48.2962 182.488C48.7259 182.488 49.054 182.298 49.2806 181.918V179.848C49.0514 179.475 48.7259 179.289 48.304 179.289C47.9551 179.289 47.6777 179.428 47.472 179.707C47.2663 179.983 47.1634 180.392 47.1634 180.934ZM53.7728 182.582C53.4915 182.913 53.0788 183.078 52.5345 183.078C52.084 183.078 51.7402 182.948 51.5033 182.688C51.2689 182.424 51.1504 182.036 51.1478 181.523V178.773H51.8704V181.504C51.8704 182.145 52.1309 182.465 52.6517 182.465C53.2038 182.465 53.571 182.259 53.7533 181.848V178.773H54.4759V183H53.7884L53.7728 182.582ZM57.3314 183.078C56.7585 183.078 56.2923 182.891 55.9329 182.516C55.5736 182.138 55.3939 181.634 55.3939 181.004V180.871C55.3939 180.452 55.4733 180.078 55.6322 179.75C55.7936 179.419 56.0176 179.161 56.304 178.977C56.5931 178.789 56.9056 178.695 57.2415 178.695C57.791 178.695 58.2181 178.876 58.5228 179.238C58.8275 179.6 58.9798 180.118 58.9798 180.793V181.094H56.1165C56.127 181.51 56.248 181.848 56.4798 182.105C56.7142 182.361 57.0111 182.488 57.3704 182.488C57.6257 182.488 57.8418 182.436 58.0189 182.332C58.196 182.228 58.3509 182.09 58.4837 181.918L58.9251 182.262C58.571 182.806 58.0397 183.078 57.3314 183.078ZM57.2415 179.289C56.9499 179.289 56.7051 179.396 56.5072 179.609C56.3092 179.82 56.1868 180.117 56.14 180.5H58.2572V180.445C58.2363 180.078 58.1374 179.794 57.9603 179.594C57.7832 179.391 57.5436 179.289 57.2415 179.289ZM62.2806 181.879C62.2806 181.684 62.2064 181.533 62.0579 181.426C61.9121 181.316 61.6556 181.223 61.2884 181.145C60.9238 181.066 60.6335 180.973 60.4173 180.863C60.2038 180.754 60.0449 180.624 59.9408 180.473C59.8392 180.322 59.7884 180.142 59.7884 179.934C59.7884 179.587 59.9342 179.294 60.2259 179.055C60.5202 178.815 60.8952 178.695 61.3509 178.695C61.8301 178.695 62.2181 178.819 62.515 179.066C62.8145 179.314 62.9642 179.63 62.9642 180.016H62.2376C62.2376 179.818 62.153 179.647 61.9837 179.504C61.8171 179.361 61.6061 179.289 61.3509 179.289C61.0879 179.289 60.8822 179.346 60.7337 179.461C60.5853 179.576 60.5111 179.725 60.5111 179.91C60.5111 180.085 60.5801 180.216 60.7181 180.305C60.8561 180.393 61.1048 180.478 61.4642 180.559C61.8262 180.639 62.1191 180.736 62.3431 180.848C62.5671 180.96 62.7324 181.095 62.8392 181.254C62.9486 181.41 63.0033 181.602 63.0033 181.828C63.0033 182.206 62.8522 182.509 62.5501 182.738C62.248 182.965 61.8561 183.078 61.3743 183.078C61.0358 183.078 60.7363 183.018 60.4759 182.898C60.2155 182.779 60.0111 182.612 59.8626 182.398C59.7168 182.182 59.6439 181.949 59.6439 181.699H60.3665C60.3796 181.941 60.4759 182.134 60.6556 182.277C60.8379 182.418 61.0775 182.488 61.3743 182.488C61.6478 182.488 61.8665 182.434 62.0306 182.324C62.1973 182.212 62.2806 182.064 62.2806 181.879ZM64.9251 177.75V178.773H65.7142V179.332H64.9251V181.953C64.9251 182.122 64.9603 182.25 65.0306 182.336C65.1009 182.419 65.2207 182.461 65.39 182.461C65.4733 182.461 65.5879 182.445 65.7337 182.414V183C65.5436 183.052 65.3587 183.078 65.179 183.078C64.8561 183.078 64.6126 182.98 64.4486 182.785C64.2845 182.59 64.2025 182.312 64.2025 181.953V179.332H63.4329V178.773H64.2025V177.75H64.9251ZM72.1986 183H68.472V182.48L70.4408 180.293C70.7324 179.962 70.9329 179.694 71.0423 179.488C71.1543 179.28 71.2103 179.065 71.2103 178.844C71.2103 178.547 71.1204 178.303 70.9408 178.113C70.7611 177.923 70.5215 177.828 70.222 177.828C69.8626 177.828 69.5827 177.931 69.3822 178.137C69.1842 178.34 69.0853 178.624 69.0853 178.988H68.3626C68.3626 178.465 68.5306 178.042 68.8665 177.719C69.2051 177.396 69.6569 177.234 70.222 177.234C70.7507 177.234 71.1686 177.374 71.4759 177.652C71.7832 177.928 71.9369 178.297 71.9369 178.758C71.9369 179.318 71.5801 179.984 70.8665 180.758L69.3431 182.41H72.1986V183Z" fill="white"/>
</g>
<g filter="url(#filter2_d)">
<rect x="15.5" y="195.5" width="79" height="19" rx="0.5" fill="#7EAFF9" stroke="#5A83C1"/>
<path d="M39.6439 205.699H38.3079V208H37.554V202.312H39.4368C40.0775 202.312 40.5697 202.458 40.9134 202.75C41.2598 203.042 41.4329 203.466 41.4329 204.023C41.4329 204.378 41.3366 204.686 41.1439 204.949C40.9538 205.212 40.6882 205.409 40.347 205.539L41.6829 207.953V208H40.8783L39.6439 205.699ZM38.3079 205.086H39.4603C39.8327 205.086 40.1283 204.99 40.347 204.797C40.5684 204.604 40.679 204.346 40.679 204.023C40.679 203.672 40.5736 203.402 40.3626 203.215C40.1543 203.027 39.8522 202.932 39.4564 202.93H38.3079V205.086ZM44.1283 208.078C43.5553 208.078 43.0892 207.891 42.7298 207.516C42.3704 207.138 42.1908 206.634 42.1908 206.004V205.871C42.1908 205.452 42.2702 205.078 42.429 204.75C42.5905 204.419 42.8145 204.161 43.1009 203.977C43.39 203.789 43.7025 203.695 44.0384 203.695C44.5879 203.695 45.015 203.876 45.3197 204.238C45.6243 204.6 45.7767 205.118 45.7767 205.793V206.094H42.9134C42.9238 206.51 43.0449 206.848 43.2767 207.105C43.5111 207.361 43.8079 207.488 44.1673 207.488C44.4225 207.488 44.6387 207.436 44.8158 207.332C44.9928 207.228 45.1478 207.09 45.2806 206.918L45.722 207.262C45.3678 207.806 44.8366 208.078 44.1283 208.078ZM44.0384 204.289C43.7467 204.289 43.502 204.396 43.304 204.609C43.1061 204.82 42.9837 205.117 42.9368 205.5H45.054V205.445C45.0332 205.078 44.9342 204.794 44.7572 204.594C44.5801 204.391 44.3405 204.289 44.0384 204.289ZM46.4408 205.852C46.4408 205.188 46.5931 204.663 46.8978 204.277C47.2025 203.889 47.6113 203.695 48.1243 203.695C48.6243 203.695 49.0189 203.863 49.3079 204.199L49.3392 203.773H50.0033V209.625H49.2806V207.609C48.9889 207.922 48.6009 208.078 48.1165 208.078C47.6061 208.078 47.1986 207.88 46.8939 207.484C46.5918 207.086 46.4408 206.559 46.4408 205.902V205.852ZM47.1634 205.934C47.1634 206.418 47.265 206.798 47.4681 207.074C47.6738 207.35 47.9499 207.488 48.2962 207.488C48.7259 207.488 49.054 207.298 49.2806 206.918V204.848C49.0514 204.475 48.7259 204.289 48.304 204.289C47.9551 204.289 47.6777 204.428 47.472 204.707C47.2663 204.983 47.1634 205.392 47.1634 205.934ZM53.7728 207.582C53.4915 207.913 53.0788 208.078 52.5345 208.078C52.084 208.078 51.7402 207.948 51.5033 207.688C51.2689 207.424 51.1504 207.036 51.1478 206.523V203.773H51.8704V206.504C51.8704 207.145 52.1309 207.465 52.6517 207.465C53.2038 207.465 53.571 207.259 53.7533 206.848V203.773H54.4759V208H53.7884L53.7728 207.582ZM57.3314 208.078C56.7585 208.078 56.2923 207.891 55.9329 207.516C55.5736 207.138 55.3939 206.634 55.3939 206.004V205.871C55.3939 205.452 55.4733 205.078 55.6322 204.75C55.7936 204.419 56.0176 204.161 56.304 203.977C56.5931 203.789 56.9056 203.695 57.2415 203.695C57.791 203.695 58.2181 203.876 58.5228 204.238C58.8275 204.6 58.9798 205.118 58.9798 205.793V206.094H56.1165C56.127 206.51 56.248 206.848 56.4798 207.105C56.7142 207.361 57.0111 207.488 57.3704 207.488C57.6257 207.488 57.8418 207.436 58.0189 207.332C58.196 207.228 58.3509 207.09 58.4837 206.918L58.9251 207.262C58.571 207.806 58.0397 208.078 57.3314 208.078ZM57.2415 204.289C56.9499 204.289 56.7051 204.396 56.5072 204.609C56.3092 204.82 56.1868 205.117 56.14 205.5H58.2572V205.445C58.2363 205.078 58.1374 204.794 57.9603 204.594C57.7832 204.391 57.5436 204.289 57.2415 204.289ZM62.2806 206.879C62.2806 206.684 62.2064 206.533 62.0579 206.426C61.9121 206.316 61.6556 206.223 61.2884 206.145C60.9238 206.066 60.6335 205.973 60.4173 205.863C60.2038 205.754 60.0449 205.624 59.9408 205.473C59.8392 205.322 59.7884 205.142 59.7884 204.934C59.7884 204.587 59.9342 204.294 60.2259 204.055C60.5202 203.815 60.8952 203.695 61.3509 203.695C61.8301 203.695 62.2181 203.819 62.515 204.066C62.8145 204.314 62.9642 204.63 62.9642 205.016H62.2376C62.2376 204.818 62.153 204.647 61.9837 204.504C61.8171 204.361 61.6061 204.289 61.3509 204.289C61.0879 204.289 60.8822 204.346 60.7337 204.461C60.5853 204.576 60.5111 204.725 60.5111 204.91C60.5111 205.085 60.5801 205.216 60.7181 205.305C60.8561 205.393 61.1048 205.478 61.4642 205.559C61.8262 205.639 62.1191 205.736 62.3431 205.848C62.5671 205.96 62.7324 206.095 62.8392 206.254C62.9486 206.41 63.0033 206.602 63.0033 206.828C63.0033 207.206 62.8522 207.509 62.5501 207.738C62.248 207.965 61.8561 208.078 61.3743 208.078C61.0358 208.078 60.7363 208.018 60.4759 207.898C60.2155 207.779 60.0111 207.612 59.8626 207.398C59.7168 207.182 59.6439 206.949 59.6439 206.699H60.3665C60.3796 206.941 60.4759 207.134 60.6556 207.277C60.8379 207.418 61.0775 207.488 61.3743 207.488C61.6478 207.488 61.8665 207.434 62.0306 207.324C62.1973 207.212 62.2806 207.064 62.2806 206.879ZM64.9251 202.75V203.773H65.7142V204.332H64.9251V206.953C64.9251 207.122 64.9603 207.25 65.0306 207.336C65.1009 207.419 65.2207 207.461 65.39 207.461C65.4733 207.461 65.5879 207.445 65.7337 207.414V208C65.5436 208.052 65.3587 208.078 65.179 208.078C64.8561 208.078 64.6126 207.98 64.4486 207.785C64.2845 207.59 64.2025 207.312 64.2025 206.953V204.332H63.4329V203.773H64.2025V202.75H64.9251ZM69.5228 204.805H70.0658C70.4069 204.799 70.6751 204.71 70.8704 204.535C71.0658 204.361 71.1634 204.125 71.1634 203.828C71.1634 203.161 70.8314 202.828 70.1673 202.828C69.8548 202.828 69.6048 202.918 69.4173 203.098C69.2324 203.275 69.14 203.51 69.14 203.805H68.4173C68.4173 203.354 68.5814 202.98 68.9095 202.684C69.2402 202.384 69.6595 202.234 70.1673 202.234C70.7038 202.234 71.1244 202.376 71.429 202.66C71.7337 202.944 71.8861 203.339 71.8861 203.844C71.8861 204.091 71.8053 204.331 71.6439 204.562C71.485 204.794 71.2676 204.967 70.9915 205.082C71.304 205.181 71.5449 205.345 71.7142 205.574C71.8861 205.803 71.972 206.083 71.972 206.414C71.972 206.924 71.8053 207.329 71.472 207.629C71.1387 207.928 70.7051 208.078 70.1712 208.078C69.6374 208.078 69.2025 207.934 68.8665 207.645C68.5332 207.355 68.3665 206.974 68.3665 206.5H69.0931C69.0931 206.799 69.1908 207.039 69.3861 207.219C69.5814 207.398 69.8431 207.488 70.1712 207.488C70.5202 207.488 70.7871 207.397 70.972 207.215C71.1569 207.033 71.2494 206.771 71.2494 206.43C71.2494 206.099 71.1478 205.845 70.9447 205.668C70.7415 205.491 70.4486 205.4 70.0658 205.395H69.5228V204.805Z" fill="white"/>
</g>
<rect x="9.5" y="51.5" width="91" height="81" rx="1.5" fill="#FFF8DF" stroke="#93750D"/>
<g filter="url(#filter3_d)">
<rect x="15.5" y="57.5" width="79" height="19" rx="0.5" fill="#7EAFF9" stroke="#5A83C1"/>
<path d="M39.6439 67.6992H38.3079V70H37.554V64.3125H39.4368C40.0775 64.3125 40.5697 64.4583 40.9134 64.75C41.2598 65.0417 41.4329 65.4661 41.4329 66.0234C41.4329 66.3776 41.3366 66.6862 41.1439 66.9492C40.9538 67.2122 40.6882 67.4089 40.347 67.5391L41.6829 69.9531V70H40.8783L39.6439 67.6992ZM38.3079 67.0859H39.4603C39.8327 67.0859 40.1283 66.9896 40.347 66.7969C40.5684 66.6042 40.679 66.3464 40.679 66.0234C40.679 65.6719 40.5736 65.4023 40.3626 65.2148C40.1543 65.0273 39.8522 64.9323 39.4564 64.9297H38.3079V67.0859ZM44.1283 70.0781C43.5553 70.0781 43.0892 69.8906 42.7298 69.5156C42.3704 69.138 42.1908 68.6341 42.1908 68.0039V67.8711C42.1908 67.4518 42.2702 67.0781 42.429 66.75C42.5905 66.4193 42.8145 66.1615 43.1009 65.9766C43.39 65.7891 43.7025 65.6953 44.0384 65.6953C44.5879 65.6953 45.015 65.8763 45.3197 66.2383C45.6243 66.6003 45.7767 67.1185 45.7767 67.793V68.0938H42.9134C42.9238 68.5104 43.0449 68.8477 43.2767 69.1055C43.5111 69.3607 43.8079 69.4883 44.1673 69.4883C44.4225 69.4883 44.6387 69.4362 44.8158 69.332C44.9928 69.2279 45.1478 69.0898 45.2806 68.918L45.722 69.2617C45.3678 69.806 44.8366 70.0781 44.1283 70.0781ZM44.0384 66.2891C43.7467 66.2891 43.502 66.3958 43.304 66.6094C43.1061 66.8203 42.9837 67.1172 42.9368 67.5H45.054V67.4453C45.0332 67.0781 44.9342 66.7943 44.7572 66.5938C44.5801 66.3906 44.3405 66.2891 44.0384 66.2891ZM46.4408 67.8516C46.4408 67.1875 46.5931 66.6628 46.8978 66.2773C47.2025 65.8893 47.6113 65.6953 48.1243 65.6953C48.6243 65.6953 49.0189 65.8633 49.3079 66.1992L49.3392 65.7734H50.0033V71.625H49.2806V69.6094C48.9889 69.9219 48.6009 70.0781 48.1165 70.0781C47.6061 70.0781 47.1986 69.8802 46.8939 69.4844C46.5918 69.0859 46.4408 68.5586 46.4408 67.9023V67.8516ZM47.1634 67.9336C47.1634 68.418 47.265 68.7982 47.4681 69.0742C47.6738 69.3503 47.9499 69.4883 48.2962 69.4883C48.7259 69.4883 49.054 69.2982 49.2806 68.918V66.8477C49.0514 66.4753 48.7259 66.2891 48.304 66.2891C47.9551 66.2891 47.6777 66.4284 47.472 66.707C47.2663 66.9831 47.1634 67.3919 47.1634 67.9336ZM53.7728 69.582C53.4915 69.9128 53.0788 70.0781 52.5345 70.0781C52.084 70.0781 51.7402 69.9479 51.5033 69.6875C51.2689 69.4245 51.1504 69.0365 51.1478 68.5234V65.7734H51.8704V68.5039C51.8704 69.1445 52.1309 69.4648 52.6517 69.4648C53.2038 69.4648 53.571 69.2591 53.7533 68.8477V65.7734H54.4759V70H53.7884L53.7728 69.582ZM57.3314 70.0781C56.7585 70.0781 56.2923 69.8906 55.9329 69.5156C55.5736 69.138 55.3939 68.6341 55.3939 68.0039V67.8711C55.3939 67.4518 55.4733 67.0781 55.6322 66.75C55.7936 66.4193 56.0176 66.1615 56.304 65.9766C56.5931 65.7891 56.9056 65.6953 57.2415 65.6953C57.791 65.6953 58.2181 65.8763 58.5228 66.2383C58.8275 66.6003 58.9798 67.1185 58.9798 67.793V68.0938H56.1165C56.127 68.5104 56.248 68.8477 56.4798 69.1055C56.7142 69.3607 57.0111 69.4883 57.3704 69.4883C57.6257 69.4883 57.8418 69.4362 58.0189 69.332C58.196 69.2279 58.3509 69.0898 58.4837 68.918L58.9251 69.2617C58.571 69.806 58.0397 70.0781 57.3314 70.0781ZM57.2415 66.2891C56.9499 66.2891 56.7051 66.3958 56.5072 66.6094C56.3092 66.8203 56.1868 67.1172 56.14 67.5H58.2572V67.4453C58.2363 67.0781 58.1374 66.7943 57.9603 66.5938C57.7832 66.3906 57.5436 66.2891 57.2415 66.2891ZM62.2806 68.8789C62.2806 68.6836 62.2064 68.5326 62.0579 68.4258C61.9121 68.3164 61.6556 68.2227 61.2884 68.1445C60.9238 68.0664 60.6335 67.9727 60.4173 67.8633C60.2038 67.7539 60.0449 67.6237 59.9408 67.4727C59.8392 67.3216 59.7884 67.1419 59.7884 66.9336C59.7884 66.5872 59.9342 66.2943 60.2259 66.0547C60.5202 65.8151 60.8952 65.6953 61.3509 65.6953C61.8301 65.6953 62.2181 65.819 62.515 66.0664C62.8145 66.3138 62.9642 66.6302 62.9642 67.0156H62.2376C62.2376 66.8177 62.153 66.6471 61.9837 66.5039C61.8171 66.3607 61.6061 66.2891 61.3509 66.2891C61.0879 66.2891 60.8822 66.3464 60.7337 66.4609C60.5853 66.5755 60.5111 66.7253 60.5111 66.9102C60.5111 67.0846 60.5801 67.2161 60.7181 67.3047C60.8561 67.3932 61.1048 67.4779 61.4642 67.5586C61.8262 67.6393 62.1191 67.7357 62.3431 67.8477C62.5671 67.9596 62.7324 68.0951 62.8392 68.2539C62.9486 68.4102 63.0033 68.6016 63.0033 68.8281C63.0033 69.2057 62.8522 69.5091 62.5501 69.7383C62.248 69.9648 61.8561 70.0781 61.3743 70.0781C61.0358 70.0781 60.7363 70.0182 60.4759 69.8984C60.2155 69.7786 60.0111 69.612 59.8626 69.3984C59.7168 69.1823 59.6439 68.9492 59.6439 68.6992H60.3665C60.3796 68.9414 60.4759 69.1341 60.6556 69.2773C60.8379 69.418 61.0775 69.4883 61.3743 69.4883C61.6478 69.4883 61.8665 69.4336 62.0306 69.3242C62.1973 69.2122 62.2806 69.0638 62.2806 68.8789ZM64.9251 64.75V65.7734H65.7142V66.332H64.9251V68.9531C64.9251 69.1224 64.9603 69.25 65.0306 69.3359C65.1009 69.4193 65.2207 69.4609 65.39 69.4609C65.4733 69.4609 65.5879 69.4453 65.7337 69.4141V70C65.5436 70.0521 65.3587 70.0781 65.179 70.0781C64.8561 70.0781 64.6126 69.9805 64.4486 69.7852C64.2845 69.5898 64.2025 69.3125 64.2025 68.9531V66.332H63.4329V65.7734H64.2025V64.75H64.9251ZM70.847 70H70.1204V65.1836L68.6634 65.7188V65.0625L70.7337 64.2852H70.847V70Z" fill="white"/>
</g>
<g filter="url(#filter4_d)">
<rect x="15.5" y="82.5" width="79" height="19" rx="0.5" fill="#7EAFF9" stroke="#5A83C1"/>
<path d="M39.6439 92.6992H38.3079V95H37.554V89.3125H39.4368C40.0775 89.3125 40.5697 89.4583 40.9134 89.75C41.2598 90.0417 41.4329 90.4661 41.4329 91.0234C41.4329 91.3776 41.3366 91.6862 41.1439 91.9492C40.9538 92.2122 40.6882 92.4089 40.347 92.5391L41.6829 94.9531V95H40.8783L39.6439 92.6992ZM38.3079 92.0859H39.4603C39.8327 92.0859 40.1283 91.9896 40.347 91.7969C40.5684 91.6042 40.679 91.3464 40.679 91.0234C40.679 90.6719 40.5736 90.4023 40.3626 90.2148C40.1543 90.0273 39.8522 89.9323 39.4564 89.9297H38.3079V92.0859ZM44.1283 95.0781C43.5553 95.0781 43.0892 94.8906 42.7298 94.5156C42.3704 94.138 42.1908 93.6341 42.1908 93.0039V92.8711C42.1908 92.4518 42.2702 92.0781 42.429 91.75C42.5905 91.4193 42.8145 91.1615 43.1009 90.9766C43.39 90.7891 43.7025 90.6953 44.0384 90.6953C44.5879 90.6953 45.015 90.8763 45.3197 91.2383C45.6243 91.6003 45.7767 92.1185 45.7767 92.793V93.0938H42.9134C42.9238 93.5104 43.0449 93.8477 43.2767 94.1055C43.5111 94.3607 43.8079 94.4883 44.1673 94.4883C44.4225 94.4883 44.6387 94.4362 44.8158 94.332C44.9928 94.2279 45.1478 94.0898 45.2806 93.918L45.722 94.2617C45.3678 94.806 44.8366 95.0781 44.1283 95.0781ZM44.0384 91.2891C43.7467 91.2891 43.502 91.3958 43.304 91.6094C43.1061 91.8203 42.9837 92.1172 42.9368 92.5H45.054V92.4453C45.0332 92.0781 44.9342 91.7943 44.7572 91.5938C44.5801 91.3906 44.3405 91.2891 44.0384 91.2891ZM46.4408 92.8516C46.4408 92.1875 46.5931 91.6628 46.8978 91.2773C47.2025 90.8893 47.6113 90.6953 48.1243 90.6953C48.6243 90.6953 49.0189 90.8633 49.3079 91.1992L49.3392 90.7734H50.0033V96.625H49.2806V94.6094C48.9889 94.9219 48.6009 95.0781 48.1165 95.0781C47.6061 95.0781 47.1986 94.8802 46.8939 94.4844C46.5918 94.0859 46.4408 93.5586 46.4408 92.9023V92.8516ZM47.1634 92.9336C47.1634 93.418 47.265 93.7982 47.4681 94.0742C47.6738 94.3503 47.9499 94.4883 48.2962 94.4883C48.7259 94.4883 49.054 94.2982 49.2806 93.918V91.8477C49.0514 91.4753 48.7259 91.2891 48.304 91.2891C47.9551 91.2891 47.6777 91.4284 47.472 91.707C47.2663 91.9831 47.1634 92.3919 47.1634 92.9336ZM53.7728 94.582C53.4915 94.9128 53.0788 95.0781 52.5345 95.0781C52.084 95.0781 51.7402 94.9479 51.5033 94.6875C51.2689 94.4245 51.1504 94.0365 51.1478 93.5234V90.7734H51.8704V93.5039C51.8704 94.1445 52.1309 94.4648 52.6517 94.4648C53.2038 94.4648 53.571 94.2591 53.7533 93.8477V90.7734H54.4759V95H53.7884L53.7728 94.582ZM57.3314 95.0781C56.7585 95.0781 56.2923 94.8906 55.9329 94.5156C55.5736 94.138 55.3939 93.6341 55.3939 93.0039V92.8711C55.3939 92.4518 55.4733 92.0781 55.6322 91.75C55.7936 91.4193 56.0176 91.1615 56.304 90.9766C56.5931 90.7891 56.9056 90.6953 57.2415 90.6953C57.791 90.6953 58.2181 90.8763 58.5228 91.2383C58.8275 91.6003 58.9798 92.1185 58.9798 92.793V93.0938H56.1165C56.127 93.5104 56.248 93.8477 56.4798 94.1055C56.7142 94.3607 57.0111 94.4883 57.3704 94.4883C57.6257 94.4883 57.8418 94.4362 58.0189 94.332C58.196 94.2279 58.3509 94.0898 58.4837 93.918L58.9251 94.2617C58.571 94.806 58.0397 95.0781 57.3314 95.0781ZM57.2415 91.2891C56.9499 91.2891 56.7051 91.3958 56.5072 91.6094C56.3092 91.8203 56.1868 92.1172 56.14 92.5H58.2572V92.4453C58.2363 92.0781 58.1374 91.7943 57.9603 91.5938C57.7832 91.3906 57.5436 91.2891 57.2415 91.2891ZM62.2806 93.8789C62.2806 93.6836 62.2064 93.5326 62.0579 93.4258C61.9121 93.3164 61.6556 93.2227 61.2884 93.1445C60.9238 93.0664 60.6335 92.9727 60.4173 92.8633C60.2038 92.7539 60.0449 92.6237 59.9408 92.4727C59.8392 92.3216 59.7884 92.1419 59.7884 91.9336C59.7884 91.5872 59.9342 91.2943 60.2259 91.0547C60.5202 90.8151 60.8952 90.6953 61.3509 90.6953C61.8301 90.6953 62.2181 90.819 62.515 91.0664C62.8145 91.3138 62.9642 91.6302 62.9642 92.0156H62.2376C62.2376 91.8177 62.153 91.6471 61.9837 91.5039C61.8171 91.3607 61.6061 91.2891 61.3509 91.2891C61.0879 91.2891 60.8822 91.3464 60.7337 91.4609C60.5853 91.5755 60.5111 91.7253 60.5111 91.9102C60.5111 92.0846 60.5801 92.2161 60.7181 92.3047C60.8561 92.3932 61.1048 92.4779 61.4642 92.5586C61.8262 92.6393 62.1191 92.7357 62.3431 92.8477C62.5671 92.9596 62.7324 93.0951 62.8392 93.2539C62.9486 93.4102 63.0033 93.6016 63.0033 93.8281C63.0033 94.2057 62.8522 94.5091 62.5501 94.7383C62.248 94.9648 61.8561 95.0781 61.3743 95.0781C61.0358 95.0781 60.7363 95.0182 60.4759 94.8984C60.2155 94.7786 60.0111 94.612 59.8626 94.3984C59.7168 94.1823 59.6439 93.9492 59.6439 93.6992H60.3665C60.3796 93.9414 60.4759 94.1341 60.6556 94.2773C60.8379 94.418 61.0775 94.4883 61.3743 94.4883C61.6478 94.4883 61.8665 94.4336 62.0306 94.3242C62.1973 94.2122 62.2806 94.0638 62.2806 93.8789ZM64.9251 89.75V90.7734H65.7142V91.332H64.9251V93.9531C64.9251 94.1224 64.9603 94.25 65.0306 94.3359C65.1009 94.4193 65.2207 94.4609 65.39 94.4609C65.4733 94.4609 65.5879 94.4453 65.7337 94.4141V95C65.5436 95.0521 65.3587 95.0781 65.179 95.0781C64.8561 95.0781 64.6126 94.9805 64.4486 94.7852C64.2845 94.5898 64.2025 94.3125 64.2025 93.9531V91.332H63.4329V90.7734H64.2025V89.75H64.9251ZM72.1986 95H68.472V94.4805L70.4408 92.293C70.7324 91.9622 70.9329 91.694 71.0423 91.4883C71.1543 91.2799 71.2103 91.0651 71.2103 90.8438C71.2103 90.5469 71.1204 90.3034 70.9408 90.1133C70.7611 89.9232 70.5215 89.8281 70.222 89.8281C69.8626 89.8281 69.5827 89.931 69.3822 90.1367C69.1842 90.3398 69.0853 90.6237 69.0853 90.9883H68.3626C68.3626 90.4648 68.5306 90.0417 68.8665 89.7188C69.2051 89.3958 69.6569 89.2344 70.222 89.2344C70.7507 89.2344 71.1686 89.3737 71.4759 89.6523C71.7832 89.9284 71.9369 90.2969 71.9369 90.7578C71.9369 91.3177 71.5801 91.9844 70.8665 92.7578L69.3431 94.4102H72.1986V95Z" fill="white"/>
</g>
<g filter="url(#filter5_d)">
<rect x="15.5" y="107.5" width="79" height="19" rx="0.5" fill="#7EAFF9" stroke="#5A83C1"/>
<path d="M39.6439 117.699H38.3079V120H37.554V114.312H39.4368C40.0775 114.312 40.5697 114.458 40.9134 114.75C41.2598 115.042 41.4329 115.466 41.4329 116.023C41.4329 116.378 41.3366 116.686 41.1439 116.949C40.9538 117.212 40.6882 117.409 40.347 117.539L41.6829 119.953V120H40.8783L39.6439 117.699ZM38.3079 117.086H39.4603C39.8327 117.086 40.1283 116.99 40.347 116.797C40.5684 116.604 40.679 116.346 40.679 116.023C40.679 115.672 40.5736 115.402 40.3626 115.215C40.1543 115.027 39.8522 114.932 39.4564 114.93H38.3079V117.086ZM44.1283 120.078C43.5553 120.078 43.0892 119.891 42.7298 119.516C42.3704 119.138 42.1908 118.634 42.1908 118.004V117.871C42.1908 117.452 42.2702 117.078 42.429 116.75C42.5905 116.419 42.8145 116.161 43.1009 115.977C43.39 115.789 43.7025 115.695 44.0384 115.695C44.5879 115.695 45.015 115.876 45.3197 116.238C45.6243 116.6 45.7767 117.118 45.7767 117.793V118.094H42.9134C42.9238 118.51 43.0449 118.848 43.2767 119.105C43.5111 119.361 43.8079 119.488 44.1673 119.488C44.4225 119.488 44.6387 119.436 44.8158 119.332C44.9928 119.228 45.1478 119.09 45.2806 118.918L45.722 119.262C45.3678 119.806 44.8366 120.078 44.1283 120.078ZM44.0384 116.289C43.7467 116.289 43.502 116.396 43.304 116.609C43.1061 116.82 42.9837 117.117 42.9368 117.5H45.054V117.445C45.0332 117.078 44.9342 116.794 44.7572 116.594C44.5801 116.391 44.3405 116.289 44.0384 116.289ZM46.4408 117.852C46.4408 117.188 46.5931 116.663 46.8978 116.277C47.2025 115.889 47.6113 115.695 48.1243 115.695C48.6243 115.695 49.0189 115.863 49.3079 116.199L49.3392 115.773H50.0033V121.625H49.2806V119.609C48.9889 119.922 48.6009 120.078 48.1165 120.078C47.6061 120.078 47.1986 119.88 46.8939 119.484C46.5918 119.086 46.4408 118.559 46.4408 117.902V117.852ZM47.1634 117.934C47.1634 118.418 47.265 118.798 47.4681 119.074C47.6738 119.35 47.9499 119.488 48.2962 119.488C48.7259 119.488 49.054 119.298 49.2806 118.918V116.848C49.0514 116.475 48.7259 116.289 48.304 116.289C47.9551 116.289 47.6777 116.428 47.472 116.707C47.2663 116.983 47.1634 117.392 47.1634 117.934ZM53.7728 119.582C53.4915 119.913 53.0788 120.078 52.5345 120.078C52.084 120.078 51.7402 119.948 51.5033 119.688C51.2689 119.424 51.1504 119.036 51.1478 118.523V115.773H51.8704V118.504C51.8704 119.145 52.1309 119.465 52.6517 119.465C53.2038 119.465 53.571 119.259 53.7533 118.848V115.773H54.4759V120H53.7884L53.7728 119.582ZM57.3314 120.078C56.7585 120.078 56.2923 119.891 55.9329 119.516C55.5736 119.138 55.3939 118.634 55.3939 118.004V117.871C55.3939 117.452 55.4733 117.078 55.6322 116.75C55.7936 116.419 56.0176 116.161 56.304 115.977C56.5931 115.789 56.9056 115.695 57.2415 115.695C57.791 115.695 58.2181 115.876 58.5228 116.238C58.8275 116.6 58.9798 117.118 58.9798 117.793V118.094H56.1165C56.127 118.51 56.248 118.848 56.4798 119.105C56.7142 119.361 57.0111 119.488 57.3704 119.488C57.6257 119.488 57.8418 119.436 58.0189 119.332C58.196 119.228 58.3509 119.09 58.4837 118.918L58.9251 119.262C58.571 119.806 58.0397 120.078 57.3314 120.078ZM57.2415 116.289C56.9499 116.289 56.7051 116.396 56.5072 116.609C56.3092 116.82 56.1868 117.117 56.14 117.5H58.2572V117.445C58.2363 117.078 58.1374 116.794 57.9603 116.594C57.7832 116.391 57.5436 116.289 57.2415 116.289ZM62.2806 118.879C62.2806 118.684 62.2064 118.533 62.0579 118.426C61.9121 118.316 61.6556 118.223 61.2884 118.145C60.9238 118.066 60.6335 117.973 60.4173 117.863C60.2038 117.754 60.0449 117.624 59.9408 117.473C59.8392 117.322 59.7884 117.142 59.7884 116.934C59.7884 116.587 59.9342 116.294 60.2259 116.055C60.5202 115.815 60.8952 115.695 61.3509 115.695C61.8301 115.695 62.2181 115.819 62.515 116.066C62.8145 116.314 62.9642 116.63 62.9642 117.016H62.2376C62.2376 116.818 62.153 116.647 61.9837 116.504C61.8171 116.361 61.6061 116.289 61.3509 116.289C61.0879 116.289 60.8822 116.346 60.7337 116.461C60.5853 116.576 60.5111 116.725 60.5111 116.91C60.5111 117.085 60.5801 117.216 60.7181 117.305C60.8561 117.393 61.1048 117.478 61.4642 117.559C61.8262 117.639 62.1191 117.736 62.3431 117.848C62.5671 117.96 62.7324 118.095 62.8392 118.254C62.9486 118.41 63.0033 118.602 63.0033 118.828C63.0033 119.206 62.8522 119.509 62.5501 119.738C62.248 119.965 61.8561 120.078 61.3743 120.078C61.0358 120.078 60.7363 120.018 60.4759 119.898C60.2155 119.779 60.0111 119.612 59.8626 119.398C59.7168 119.182 59.6439 118.949 59.6439 118.699H60.3665C60.3796 118.941 60.4759 119.134 60.6556 119.277C60.8379 119.418 61.0775 119.488 61.3743 119.488C61.6478 119.488 61.8665 119.434 62.0306 119.324C62.1973 119.212 62.2806 119.064 62.2806 118.879ZM64.9251 114.75V115.773H65.7142V116.332H64.9251V118.953C64.9251 119.122 64.9603 119.25 65.0306 119.336C65.1009 119.419 65.2207 119.461 65.39 119.461C65.4733 119.461 65.5879 119.445 65.7337 119.414V120C65.5436 120.052 65.3587 120.078 65.179 120.078C64.8561 120.078 64.6126 119.98 64.4486 119.785C64.2845 119.59 64.2025 119.312 64.2025 118.953V116.332H63.4329V115.773H64.2025V114.75H64.9251ZM69.5228 116.805H70.0658C70.4069 116.799 70.6751 116.71 70.8704 116.535C71.0658 116.361 71.1634 116.125 71.1634 115.828C71.1634 115.161 70.8314 114.828 70.1673 114.828C69.8548 114.828 69.6048 114.918 69.4173 115.098C69.2324 115.275 69.14 115.51 69.14 115.805H68.4173C68.4173 115.354 68.5814 114.98 68.9095 114.684C69.2402 114.384 69.6595 114.234 70.1673 114.234C70.7038 114.234 71.1244 114.376 71.429 114.66C71.7337 114.944 71.8861 115.339 71.8861 115.844C71.8861 116.091 71.8053 116.331 71.6439 116.562C71.485 116.794 71.2676 116.967 70.9915 117.082C71.304 117.181 71.5449 117.345 71.7142 117.574C71.8861 117.803 71.972 118.083 71.972 118.414C71.972 118.924 71.8053 119.329 71.472 119.629C71.1387 119.928 70.7051 120.078 70.1712 120.078C69.6374 120.078 69.2025 119.934 68.8665 119.645C68.5332 119.355 68.3665 118.974 68.3665 118.5H69.0931C69.0931 118.799 69.1908 119.039 69.3861 119.219C69.5814 119.398 69.8431 119.488 70.1712 119.488C70.5202 119.488 70.7871 119.397 70.972 119.215C71.1569 119.033 71.2494 118.771 71.2494 118.43C71.2494 118.099 71.1478 117.845 70.9447 117.668C70.7415 117.491 70.4486 117.4 70.0658 117.395H69.5228V116.805Z" fill="white"/>
</g>
<line y1="245.5" x2="106" y2="245.5" stroke="#5A83C1"/>
<path d="M111.521 246L102.88 249.464V242.536L111.521 246Z" fill="#5A83C1"/>
<path d="M46.2975 263H45.6334V257.879H43.8248V257.289H48.1061V257.879H46.2975V263ZM49.5201 263H48.8717V258.719H49.5201V263ZM48.817 257.559C48.817 257.41 48.8535 257.302 48.9264 257.234C48.9993 257.164 49.0904 257.129 49.1998 257.129C49.304 257.129 49.3938 257.164 49.4693 257.234C49.5449 257.305 49.5826 257.413 49.5826 257.559C49.5826 257.704 49.5449 257.814 49.4693 257.887C49.3938 257.957 49.304 257.992 49.1998 257.992C49.0904 257.992 48.9993 257.957 48.9264 257.887C48.8535 257.814 48.817 257.704 48.817 257.559ZM56.3522 263V260.215C56.3522 259.874 56.2792 259.618 56.1334 259.449C55.9876 259.277 55.761 259.191 55.4537 259.191C55.0501 259.191 54.7519 259.307 54.5592 259.539C54.3665 259.771 54.2701 260.128 54.2701 260.609V263H53.6217V260.215C53.6217 259.874 53.5488 259.618 53.4029 259.449C53.2571 259.277 53.0292 259.191 52.7193 259.191C52.3131 259.191 52.0149 259.314 51.8248 259.559C51.6373 259.801 51.5436 260.199 51.5436 260.754V263H50.8951V258.719H51.4225L51.5279 259.305H51.5592C51.6816 259.096 51.8535 258.934 52.0748 258.816C52.2988 258.699 52.5488 258.641 52.8248 258.641C53.4941 258.641 53.9316 258.883 54.1373 259.367H54.1686C54.2962 259.143 54.4811 258.966 54.7232 258.836C54.9654 258.706 55.2415 258.641 55.5514 258.641C56.0357 258.641 56.3977 258.766 56.6373 259.016C56.8795 259.263 57.0006 259.66 57.0006 260.207V263H56.3522ZM60.149 263.078C59.5162 263.078 59.0162 262.885 58.649 262.5C58.2844 262.115 58.1022 261.579 58.1022 260.895C58.1022 260.204 58.2714 259.656 58.61 259.25C58.9511 258.844 59.4081 258.641 59.9811 258.641C60.5175 258.641 60.942 258.818 61.2545 259.172C61.567 259.523 61.7232 259.988 61.7232 260.566V260.977H58.774C58.7871 261.479 58.9134 261.861 59.1529 262.121C59.3951 262.382 59.735 262.512 60.1725 262.512C60.6334 262.512 61.0891 262.415 61.5397 262.223V262.801C61.3105 262.9 61.093 262.97 60.8873 263.012C60.6842 263.056 60.4381 263.078 60.149 263.078ZM59.9732 259.184C59.6295 259.184 59.3548 259.296 59.149 259.52C58.9459 259.743 58.8261 260.053 58.7897 260.449H61.0279C61.0279 260.04 60.9368 259.728 60.7545 259.512C60.5722 259.293 60.3118 259.184 59.9732 259.184Z" fill="#5A83C1"/>
<path d="M5.8125 7.05664H2.11523V10.0801H6.41016V11H0.990234V2.46875H6.35156V3.39453H2.11523V6.13672H5.8125V7.05664ZM9.76758 6.97461L11.1738 4.66016H12.4395L10.3652 7.79492L12.5039 11H11.25L9.78516 8.62695L8.32031 11H7.06055L9.19922 7.79492L7.125 4.66016H8.37891L9.76758 6.97461ZM15.0645 3.125V4.66016H16.248V5.49805H15.0645V9.42969C15.0645 9.68359 15.1172 9.875 15.2227 10.0039C15.3281 10.1289 15.5078 10.1914 15.7617 10.1914C15.8867 10.1914 16.0586 10.168 16.2773 10.1211V11C15.9922 11.0781 15.7148 11.1172 15.4453 11.1172C14.9609 11.1172 14.5957 10.9707 14.3496 10.6777C14.1035 10.3848 13.9805 9.96875 13.9805 9.42969V5.49805H12.8262V4.66016H13.9805V3.125H15.0645ZM20.584 5.63281C20.4199 5.60547 20.2422 5.5918 20.0508 5.5918C19.3398 5.5918 18.8574 5.89453 18.6035 6.5V11H17.5195V4.66016H18.5742L18.5918 5.39258C18.9473 4.82617 19.4512 4.54297 20.1035 4.54297C20.3145 4.54297 20.4746 4.57031 20.584 4.625V5.63281ZM24.0996 11.1172C23.2402 11.1172 22.541 10.8359 22.002 10.2734C21.4629 9.70703 21.1934 8.95117 21.1934 8.00586V7.80664C21.1934 7.17773 21.3125 6.61719 21.5508 6.125C21.793 5.62891 22.1289 5.24219 22.5586 4.96484C22.9922 4.68359 23.4609 4.54297 23.9648 4.54297C24.7891 4.54297 25.4297 4.81445 25.8867 5.35742C26.3438 5.90039 26.5723 6.67773 26.5723 7.68945V8.14062H22.2773C22.293 8.76562 22.4746 9.27148 22.8223 9.6582C23.1738 10.041 23.6191 10.2324 24.1582 10.2324C24.541 10.2324 24.8652 10.1543 25.1309 9.99805C25.3965 9.8418 25.6289 9.63477 25.8281 9.37695L26.4902 9.89258C25.959 10.709 25.1621 11.1172 24.0996 11.1172ZM23.9648 5.43359C23.5273 5.43359 23.1602 5.59375 22.8633 5.91406C22.5664 6.23047 22.3828 6.67578 22.3125 7.25H25.4883V7.16797C25.457 6.61719 25.3086 6.19141 25.043 5.89062C24.7773 5.58594 24.418 5.43359 23.9648 5.43359ZM28.8516 4.66016L28.8809 5.36328C29.3457 4.81641 29.9727 4.54297 30.7617 4.54297C31.6484 4.54297 32.252 4.88281 32.5723 5.5625C32.7832 5.25781 33.0566 5.01172 33.3926 4.82422C33.7324 4.63672 34.1328 4.54297 34.5938 4.54297C35.9844 4.54297 36.6914 5.2793 36.7148 6.75195V11H35.6309V6.81641C35.6309 6.36328 35.5273 6.02539 35.3203 5.80273C35.1133 5.57617 34.7656 5.46289 34.2773 5.46289C33.875 5.46289 33.541 5.58398 33.2754 5.82617C33.0098 6.06445 32.8555 6.38672 32.8125 6.79297V11H31.7227V6.8457C31.7227 5.92383 31.2715 5.46289 30.3691 5.46289C29.6582 5.46289 29.1719 5.76562 28.9102 6.37109V11H27.8262V4.66016H28.8516ZM40.9863 11.1172C40.127 11.1172 39.4277 10.8359 38.8887 10.2734C38.3496 9.70703 38.0801 8.95117 38.0801 8.00586V7.80664C38.0801 7.17773 38.1992 6.61719 38.4375 6.125C38.6797 5.62891 39.0156 5.24219 39.4453 4.96484C39.8789 4.68359 40.3477 4.54297 40.8516 4.54297C41.6758 4.54297 42.3164 4.81445 42.7734 5.35742C43.2305 5.90039 43.459 6.67773 43.459 7.68945V8.14062H39.1641C39.1797 8.76562 39.3613 9.27148 39.709 9.6582C40.0605 10.041 40.5059 10.2324 41.0449 10.2324C41.4277 10.2324 41.752 10.1543 42.0176 9.99805C42.2832 9.8418 42.5156 9.63477 42.7148 9.37695L43.377 9.89258C42.8457 10.709 42.0488 11.1172 40.9863 11.1172ZM40.8516 5.43359C40.4141 5.43359 40.0469 5.59375 39.75 5.91406C39.4531 6.23047 39.2695 6.67578 39.1992 7.25H42.375V7.16797C42.3438 6.61719 42.1953 6.19141 41.9297 5.89062C41.6641 5.58594 41.3047 5.43359 40.8516 5.43359ZM48.7148 4.66016L48.7441 5.36328C49.209 4.81641 49.8359 4.54297 50.625 4.54297C51.5117 4.54297 52.1152 4.88281 52.4355 5.5625C52.6465 5.25781 52.9199 5.01172 53.2559 4.82422C53.5957 4.63672 53.9961 4.54297 54.457 4.54297C55.8477 4.54297 56.5547 5.2793 56.5781 6.75195V11H55.4941V6.81641C55.4941 6.36328 55.3906 6.02539 55.1836 5.80273C54.9766 5.57617 54.6289 5.46289 54.1406 5.46289C53.7383 5.46289 53.4043 5.58398 53.1387 5.82617C52.873 6.06445 52.7188 6.38672 52.6758 6.79297V11H51.5859V6.8457C51.5859 5.92383 51.1348 5.46289 50.2324 5.46289C49.5215 5.46289 49.0352 5.76562 48.7734 6.37109V11H47.6895V4.66016H48.7148ZM57.9316 7.77148C57.9316 7.15039 58.0527 6.5918 58.2949 6.0957C58.541 5.59961 58.8809 5.2168 59.3145 4.94727C59.752 4.67773 60.25 4.54297 60.8086 4.54297C61.6719 4.54297 62.3691 4.8418 62.9004 5.43945C63.4355 6.03711 63.7031 6.83203 63.7031 7.82422V7.90039C63.7031 8.51758 63.584 9.07227 63.3457 9.56445C63.1113 10.0527 62.7734 10.4336 62.332 10.707C61.8945 10.9805 61.3906 11.1172 60.8203 11.1172C59.9609 11.1172 59.2637 10.8184 58.7285 10.2207C58.1973 9.62305 57.9316 8.83203 57.9316 7.84766V7.77148ZM59.0215 7.90039C59.0215 8.60352 59.1836 9.16797 59.5078 9.59375C59.8359 10.0195 60.2734 10.2324 60.8203 10.2324C61.3711 10.2324 61.8086 10.0176 62.1328 9.58789C62.457 9.1543 62.6191 8.54883 62.6191 7.77148C62.6191 7.07617 62.4531 6.51367 62.1211 6.08398C61.793 5.65039 61.3555 5.43359 60.8086 5.43359C60.2734 5.43359 59.8418 5.64648 59.5137 6.07227C59.1855 6.49805 59.0215 7.10742 59.0215 7.90039ZM64.7988 7.77734C64.7988 6.80469 65.0293 6.02344 65.4902 5.43359C65.9512 4.83984 66.5547 4.54297 67.3008 4.54297C68.043 4.54297 68.6309 4.79688 69.0645 5.30469V2H70.1484V11H69.1523L69.0996 10.3203C68.666 10.8516 68.0625 11.1172 67.2891 11.1172C66.5547 11.1172 65.9551 10.8164 65.4902 10.2148C65.0293 9.61328 64.7988 8.82812 64.7988 7.85938V7.77734ZM65.8828 7.90039C65.8828 8.61914 66.0312 9.18164 66.3281 9.58789C66.625 9.99414 67.0352 10.1973 67.5586 10.1973C68.2461 10.1973 68.748 9.88867 69.0645 9.27148V6.35938C68.7402 5.76172 68.2422 5.46289 67.5703 5.46289C67.0391 5.46289 66.625 5.66797 66.3281 6.07812C66.0312 6.48828 65.8828 7.0957 65.8828 7.90039ZM74.4668 11.1172C73.6074 11.1172 72.9082 10.8359 72.3691 10.2734C71.8301 9.70703 71.5605 8.95117 71.5605 8.00586V7.80664C71.5605 7.17773 71.6797 6.61719 71.918 6.125C72.1602 5.62891 72.4961 5.24219 72.9258 4.96484C73.3594 4.68359 73.8281 4.54297 74.332 4.54297C75.1562 4.54297 75.7969 4.81445 76.2539 5.35742C76.7109 5.90039 76.9395 6.67773 76.9395 7.68945V8.14062H72.6445C72.6602 8.76562 72.8418 9.27148 73.1895 9.6582C73.541 10.041 73.9863 10.2324 74.5254 10.2324C74.9082 10.2324 75.2324 10.1543 75.498 9.99805C75.7637 9.8418 75.9961 9.63477 76.1953 9.37695L76.8574 9.89258C76.3262 10.709 75.5293 11.1172 74.4668 11.1172ZM74.332 5.43359C73.8945 5.43359 73.5273 5.59375 73.2305 5.91406C72.9336 6.23047 72.75 6.67578 72.6797 7.25H75.8555V7.16797C75.8242 6.61719 75.6758 6.19141 75.4102 5.89062C75.1445 5.58594 74.7852 5.43359 74.332 5.43359Z" fill="black"/>
<defs>
<filter id="filter0_d" x="11" y="142" width="88" height="28" filterUnits="userSpaceOnUse" color-interpolation-filters="sRGB">
<feFlood flood-opacity="0" result="BackgroundImageFix"/>
<feColorMatrix in="SourceAlpha" type="matrix" values="0 0 0 0 0 0 0 0 0 0 0 0 0 0 0 0 0 0 127 0"/>
<feOffset dy="1"/>
<feGaussianBlur stdDeviation="2"/>
<feColorMatrix type="matrix" values="0 0 0 0 0 0 0 0 0 0 0 0 0 0 0 0 0 0 0.25 0"/>
<feBlend mode="normal" in2="BackgroundImageFix" result="effect1_dropShadow"/>
<feBlend mode="normal" in="SourceGraphic" in2="effect1_dropShadow" result="shape"/>
</filter>
<filter id="filter1_d" x="11" y="167" width="88" height="28" filterUnits="userSpaceOnUse" color-interpolation-filters="sRGB">
<feFlood flood-opacity="0" result="BackgroundImageFix"/>
<feColorMatrix in="SourceAlpha" type="matrix" values="0 0 0 0 0 0 0 0 0 0 0 0 0 0 0 0 0 0 127 0"/>
<feOffset dy="1"/>
<feGaussianBlur stdDeviation="2"/>
<feColorMatrix type="matrix" values="0 0 0 0 0 0 0 0 0 0 0 0 0 0 0 0 0 0 0.25 0"/>
<feBlend mode="normal" in2="BackgroundImageFix" result="effect1_dropShadow"/>
<feBlend mode="normal" in="SourceGraphic" in2="effect1_dropShadow" result="shape"/>
</filter>
<filter id="filter2_d" x="11" y="192" width="88" height="28" filterUnits="userSpaceOnUse" color-interpolation-filters="sRGB">
<feFlood flood-opacity="0" result="BackgroundImageFix"/>
<feColorMatrix in="SourceAlpha" type="matrix" values="0 0 0 0 0 0 0 0 0 0 0 0 0 0 0 0 0 0 127 0"/>
<feOffset dy="1"/>
<feGaussianBlur stdDeviation="2"/>
<feColorMatrix type="matrix" values="0 0 0 0 0 0 0 0 0 0 0 0 0 0 0 0 0 0 0.25 0"/>
<feBlend mode="normal" in2="BackgroundImageFix" result="effect1_dropShadow"/>
<feBlend mode="normal" in="SourceGraphic" in2="effect1_dropShadow" result="shape"/>
</filter>
<filter id="filter3_d" x="11" y="54" width="88" height="28" filterUnits="userSpaceOnUse" color-interpolation-filters="sRGB">
<feFlood flood-opacity="0" result="BackgroundImageFix"/>
<feColorMatrix in="SourceAlpha" type="matrix" values="0 0 0 0 0 0 0 0 0 0 0 0 0 0 0 0 0 0 127 0"/>
<feOffset dy="1"/>
<feGaussianBlur stdDeviation="2"/>
<feColorMatrix type="matrix" values="0 0 0 0 0 0 0 0 0 0 0 0 0 0 0 0 0 0 0.25 0"/>
<feBlend mode="normal" in2="BackgroundImageFix" result="effect1_dropShadow"/>
<feBlend mode="normal" in="SourceGraphic" in2="effect1_dropShadow" result="shape"/>
</filter>
<filter id="filter4_d" x="11" y="79" width="88" height="28" filterUnits="userSpaceOnUse" color-interpolation-filters="sRGB">
<feFlood flood-opacity="0" result="BackgroundImageFix"/>
<feColorMatrix in="SourceAlpha" type="matrix" values="0 0 0 0 0 0 0 0 0 0 0 0 0 0 0 0 0 0 127 0"/>
<feOffset dy="1"/>
<feGaussianBlur stdDeviation="2"/>
<feColorMatrix type="matrix" values="0 0 0 0 0 0 0 0 0 0 0 0 0 0 0 0 0 0 0.25 0"/>
<feBlend mode="normal" in2="BackgroundImageFix" result="effect1_dropShadow"/>
<feBlend mode="normal" in="SourceGraphic" in2="effect1_dropShadow" result="shape"/>
</filter>
<filter id="filter5_d" x="11" y="104" width="88" height="28" filterUnits="userSpaceOnUse" color-interpolation-filters="sRGB">
<feFlood flood-opacity="0" result="BackgroundImageFix"/>
<feColorMatrix in="SourceAlpha" type="matrix" values="0 0 0 0 0 0 0 0 0 0 0 0 0 0 0 0 0 0 127 0"/>
<feOffset dy="1"/>
<feGaussianBlur stdDeviation="2"/>
<feColorMatrix type="matrix" values="0 0 0 0 0 0 0 0 0 0 0 0 0 0 0 0 0 0 0.25 0"/>
<feBlend mode="normal" in2="BackgroundImageFix" result="effect1_dropShadow"/>
<feBlend mode="normal" in="SourceGraphic" in2="effect1_dropShadow" result="shape"/>
</filter>
</defs>
</svg>
